<?xml version="1.0" encoding="UTF-8"?>
<svg width="121px" height="44px" viewBox="0 0 121 44" version="1.1" xmlns="http://www.w3.org/2000/svg" xmlns:xlink="http://www.w3.org/1999/xlink">
    <!-- Generator: Sketch 54.1 (76490) - https://sketchapp.com -->
    <title>adweek</title>
    <desc>Created with Sketch.</desc>
    <g id="Page-1" stroke="none" stroke-width="1" fill="none" fill-rule="evenodd" opacity="0.25">
        <g id="final" transform="translate(-1061.000000, -1080.000000)" fill="#0D0E1F" fill-rule="nonzero">
            <g id="as-seen-in" transform="translate(0.000000, 912.000000)">
                <g id="adweek" transform="translate(1061.000000, 168.000000)">
                    <path d="M118.83291,41.385 L119.328811,41.385 C119.542049,41.385 119.785041,41.47 119.785041,41.745 C119.785041,42.02 119.4875,42.09 119.214754,42.09 L118.83291,42.09 L118.83291,42.225 L119.299057,42.225 L119.83959,43.06 L120.008197,43.06 L119.472623,42.23 C119.734818,42.2141101 119.939244,41.9948386 119.93877,41.73 C119.93877,41.405 119.760246,41.23 119.353607,41.23 L118.67918,41.23 L118.67918,43.04 L118.83291,43.04 L118.83291,41.385 L118.83291,41.385 Z" id="Path"></path>
                    <path d="M119.229631,40.625 C119.84629,40.622978 120.403251,40.9962256 120.640164,41.5702676 C120.877076,42.1443097 120.74714,42.8057514 120.311094,43.2454008 C119.875048,43.6850502 119.219028,43.8160602 118.649692,43.5771899 C118.080355,43.3383197 117.710167,42.7767549 117.712172,42.155 C117.712172,41.3100043 118.391562,40.625 119.229631,40.625 L119.229631,40.76 C118.862368,40.7544301 118.508736,40.9001116 118.25042,41.1633931 C117.992104,41.4266746 117.851448,41.7847839 117.860943,42.155 C117.860943,42.9143915 118.471505,43.53 119.224672,43.53 C119.977839,43.53 120.588402,42.9143915 120.588402,42.155 C120.59923,41.7861345 120.460378,41.4287725 120.203926,41.1654824 C119.947473,40.9021923 119.595609,40.7557533 119.229631,40.76 L119.229631,40.625 L119.229631,40.625 Z" id="Path"></path>
                    <polygon id="Path" points="104.124467 42.2 96.9686066 42.2 96.9686066 0 104.124467 0 104.124467 16.53 107.799098 0 115.45582 0 110.625738 16.93 115.713689 42.2 108.270205 42.2 105.666721 23.92 104.124467 27.11 104.124467 42.2"></polygon>
                    <polygon id="Path" points="82.0419672 35.095 75.0943852 35.095 75.0943852 24 80.5740984 24 80.5740984 16.915 75.0943852 16.915 75.0943852 6.585 82.0419672 6.585 82.0419672 0 67.5318852 0 67.5318852 42.2 82.0419672 42.2"></polygon>
                    <polygon id="Path" points="96.3437705 35.095 89.6937295 35.095 89.6937295 24 94.9354098 24 94.9354098 16.915 89.6937295 16.915 89.6937295 6.585 96.3437705 6.585 96.3437705 0 82.4684426 0 82.4684426 42.2 96.3437705 42.2"></polygon>
                    <polygon id="Path" points="38.2984836 0 43.4211475 42.2 51.1770492 42.2 53.1309016 15.07 55.669918 42.2 62.3397951 42.2 67.0558197 0 61.1545902 0 59.6966393 23.71 57.2072131 0 49.5504918 0 47.5520082 23.335 45.1022541 0 38.2984836 0"></polygon>
                    <path d="M32.8038934,0 L20.9419262,0 L20.9419262,42.2 L32.8038934,42.2 C35.8388115,42.2 38.2984836,38.615 38.2984836,34.2 L38.2984836,8 C38.2984836,3.585 35.8388115,0 32.8038934,0 Z M31.2070902,33.185 C31.2070902,34.795 30.4880328,36.095 29.6003689,36.095 L28.3506967,36.095 L28.3506967,6.595 L29.6003689,6.595 C30.4880328,6.595 31.2070902,7.9 31.2070902,9.505 L31.2070902,33.185 Z" id="Shape"></path>
                    <path d="M15.8688525,0 L5.01852459,0 L0,42.225 L6.47647541,42.225 L7.2302459,32.785 L11.7528689,32.785 L12.5066393,42.225 L20.5204098,42.225 L15.8688525,0 Z M8.17245902,26.945 L9.98745902,8.945 L11.802459,26.945 L8.17245902,26.945 Z" id="Shape"></path>
                </g>
            </g>
        </g>
    </g>
</svg>