<?xml version="1.0" encoding="UTF-8"?>
<svg width="162px" height="32px" viewBox="0 0 162 32" version="1.1" xmlns="http://www.w3.org/2000/svg" xmlns:xlink="http://www.w3.org/1999/xlink">
    <!-- Generator: Sketch 54.1 (76490) - https://sketchapp.com -->
    <title>Bloomberg_Television</title>
    <desc>Created with Sketch.</desc>
    <g id="Page-1" stroke="none" stroke-width="1" fill="none" fill-rule="evenodd" opacity="0.25">
        <g id="final" transform="translate(-995.000000, -993.000000)" fill="#1A1919">
            <g id="as-seen-in" transform="translate(0.000000, 912.000000)">
                <g id="Bloomberg_Television" transform="translate(995.000000, 81.000000)">
                    <path d="M0.401553191,0.172972973 L7.12282979,0.172972973 C11.3236277,0.172972973 12.5842979,0.172972973 14.2637553,2.28151351 C15.1039149,3.12475676 15.5244255,4.81124324 15.5244255,6.07567568 C15.5244255,7.76216216 14.684266,9.02745946 13.0039468,10.2918919 C16.7850957,11.5571892 16.3645851,14.9301622 16.3645851,16.1945946 C16.3645851,17.8819459 15.9449362,19.5675676 14.2637553,20.8328649 C12.1637872,22.5193514 11.3236277,22.9405405 7.54247872,22.9405405 L0.401553191,22.9405405 L0.401553191,0.172972973 Z M6.28267021,8.60540541 L7.96298936,8.60540541 C8.80314894,8.60540541 10.0638191,8.60540541 10.0638191,6.91891892 C10.0638191,5.23243243 8.80314894,5.23243243 7.96298936,5.23243243 L6.28267021,5.23243243 L6.28267021,8.60540541 Z M6.28267021,17.8819459 L8.3826383,17.8819459 C9.22279787,17.8819459 11.3236277,17.8819459 10.903117,15.7734054 C11.3236277,13.6648649 9.64330851,13.6648649 8.3826383,13.6648649 L6.28267021,13.6648649 L6.28267021,17.8819459 L6.28267021,17.8819459 Z" id="Fill-2"></path>
                    <polygon id="Fill-3" points="18.0449043 22.9405405 23.0858617 22.9405405 23.0858617 0.172972973 18.0449043 0.172972973"></polygon>
                    <path d="M33.5882872,5.23243243 C39.8890532,5.23243243 42.8300426,9.8707027 42.8300426,14.5081081 C42.8300426,18.3031351 39.8890532,23.3625946 33.5882872,23.3625946 C27.7071702,23.3625946 24.7661809,18.3031351 24.3465319,14.5081081 C24.7661809,9.8707027 27.7071702,5.23243243 33.5882872,5.23243243 Z M33.5882872,18.7251892 C36.108766,18.7251892 37.7890851,16.6166486 37.7890851,14.5081081 C37.7890851,11.5571892 36.108766,9.8707027 33.5882872,9.8707027 C31.4874574,9.8707027 29.8071383,11.5571892 29.8071383,14.5081081 C29.8071383,16.6166486 31.4874574,18.7251892 33.5882872,18.7251892 L33.5882872,18.7251892 Z" id="Fill-4"></path>
                    <path d="M53.3324681,5.23243243 C59.633234,5.23243243 62.5742234,9.8707027 62.5742234,14.5081081 C62.5742234,18.3031351 59.633234,23.3625946 53.3324681,23.3625946 C47.0308404,23.3625946 44.0907128,18.3031351 44.0907128,14.5081081 C44.0907128,9.8707027 47.0308404,5.23243243 53.3324681,5.23243243 Z M53.3324681,18.7251892 C55.4324362,18.7251892 57.5324043,16.6166486 57.5324043,14.5081081 C57.5324043,11.5571892 55.4324362,9.8707027 53.3324681,9.8707027 C51.2316383,9.8707027 49.1308085,11.5571892 49.1308085,14.5081081 C49.1308085,16.6166486 51.2316383,18.7251892 53.3324681,18.7251892 L53.3324681,18.7251892 Z" id="Fill-5"></path>
                    <path d="M63.8340319,5.65448649 L68.4553404,5.65448649 L68.4553404,7.76216216 C68.8749894,6.91891892 70.1356596,5.23243243 73.0757872,5.23243243 C74.7569681,5.23243243 76.8569362,5.65448649 78.1176064,8.18421622 C79.3774149,6.49772973 81.057734,5.23243243 83.5782128,5.23243243 C84.838883,5.23243243 86.9388511,5.23243243 88.1995213,6.91891892 C89.8798404,8.60540541 89.8798404,9.8707027 89.8798404,13.6648649 L89.8798404,22.9405405 L84.838883,22.9405405 L84.838883,13.6648649 C84.838883,12.4004324 84.838883,9.8707027 82.3175426,9.8707027 C79.3774149,9.8707027 79.3774149,12.4004324 79.3774149,13.6648649 L79.3774149,22.9405405 L74.3364574,22.9405405 L74.3364574,13.6648649 C74.3364574,12.4004324 74.3364574,9.8707027 71.8159787,9.8707027 C68.8749894,9.8707027 68.8749894,12.8224865 68.8749894,13.6648649 L68.8749894,22.9405405 L63.8340319,22.9405405 L63.8340319,5.65448649" id="Fill-6"></path>
                    <path d="M91.9798085,0.172972973 L97.4412766,0.172972973 L97.4412766,7.34097297 C99.1215957,5.23243243 101.642074,5.23243243 102.062585,5.23243243 C105.842872,5.23243243 110.88383,7.76216216 110.463319,14.0869189 C110.88383,20.4108108 106.263383,23.3625946 102.062585,23.3625946 C99.5421064,23.3625946 97.8609255,22.0981622 97.020766,21.2540541 L97.020766,22.9405405 L91.9798085,22.9405405 L91.9798085,0.172972973 Z M101.221564,18.7251892 C103.742904,18.7251892 105.423223,16.6166486 105.423223,14.5081081 C105.423223,11.9783784 103.742904,9.8707027 101.221564,9.8707027 C98.7010851,9.8707027 97.020766,11.9783784 97.020766,14.5081081 C97.020766,16.6166486 98.7010851,18.7251892 101.221564,18.7251892 L101.221564,18.7251892 Z" id="Fill-7"></path>
                    <path d="M129.787851,17.4598919 C128.947691,19.5675676 127.687883,20.8328649 126.006702,22.0981622 C124.746894,22.9405405 123.066574,23.3625946 121.386255,23.3625946 C116.345298,23.3625946 112.1445,19.5675676 112.1445,14.5081081 C112.1445,9.44951351 115.924787,5.23243243 120.965745,5.23243243 C126.427213,5.23243243 130.2075,9.44951351 130.2075,14.5081081 C130.2075,15.3522162 130.2075,15.3522162 130.2075,15.7734054 L117.185457,15.7734054 C117.605106,17.8819459 119.286287,19.1463784 121.386255,19.1463784 C123.066574,19.1463784 123.906734,18.3031351 124.326383,17.4598919 L129.787851,17.4598919 Z M125.167404,12.4004324 C125.167404,11.5571892 123.906734,9.44951351 121.386255,9.44951351 C118.865777,9.44951351 117.605106,11.5571892 117.185457,12.4004324 L125.167404,12.4004324 L125.167404,12.4004324 Z" id="Fill-8"></path>
                    <path d="M132.30833,5.65448649 L136.929638,5.65448649 L136.929638,7.76216216 C137.769798,6.91891892 139.869766,5.65448649 141.970596,6.07567568 L141.970596,10.7139459 C139.869766,10.7139459 137.349287,10.7139459 137.349287,13.6648649 L137.349287,22.9405405 L132.30833,22.9405405 L132.30833,5.65448649" id="Fill-9"></path>
                    <path d="M161.294266,20.8328649 C161.294266,23.3625946 160.874617,26.7355676 160.033596,28.0008649 C158.773787,30.1085405 155.83366,32.2170811 151.632,31.795027 C145.750883,30.9517838 144.070564,28.4220541 143.650915,25.8923243 L149.111521,25.8923243 C149.951681,27.1576216 151.632,27.1576216 152.052511,27.5788108 C154.572989,27.1576216 156.253309,27.1576216 155.83366,21.6761081 L155.83366,21.2540541 C155.413149,22.0981622 154.152479,23.3625946 151.212351,23.3625946 C146.591904,23.3625946 142.810755,19.9896216 142.810755,14.5081081 C142.810755,8.60540541 147.011553,5.23243243 151.212351,5.23243243 C153.313181,5.23243243 154.9935,5.65448649 155.83366,7.34097297 L155.83366,5.65448649 L161.294266,5.65448649 L161.294266,20.8328649 Z M152.052511,18.7251892 C154.572989,18.7251892 156.253309,17.0378378 155.83366,14.5081081 C156.253309,11.5571892 154.152479,9.8707027 152.052511,9.8707027 C149.951681,9.8707027 147.851713,11.5571892 147.851713,14.5081081 C147.851713,17.0378378 149.951681,18.7251892 152.052511,18.7251892 L152.052511,18.7251892 Z" id="Fill-10"></path>
                </g>
            </g>
        </g>
    </g>
</svg>