<?xml version="1.0" encoding="UTF-8"?>
<svg width="72px" height="72px" viewBox="0 0 72 72" version="1.1" xmlns="http://www.w3.org/2000/svg" xmlns:xlink="http://www.w3.org/1999/xlink">
    <!-- Generator: Sketch 54.1 (76490) - https://sketchapp.com -->
    <title>CNET_com</title>
    <desc>Created with Sketch.</desc>
    <g id="Page-1" stroke="none" stroke-width="1" fill="none" fill-rule="evenodd" opacity="0.25">
        <g id="final" transform="translate(-503.000000, -972.000000)">
            <g id="as-seen-in" transform="translate(0.000000, 912.000000)">
                <g id="CNET_com" transform="translate(503.000000, 60.000000)">
                    <path d="M36.177873,71.8153548 C55.8843968,71.8153548 71.8551746,55.8092903 71.8551746,36.0650323 C71.8551746,16.3196129 55.8843968,0.312387097 36.177873,0.312387097 C16.4759841,0.312387097 0.501730159,16.3196129 0.501730159,36.0650323 C0.501730159,55.8092903 16.4759841,71.8153548 36.177873,71.8153548" id="Fill-10" fill="#000000"></path>
                    <polygon id="Fill-11" fill="#FFFFFE" points="22.715746 57.4141935 25.2012222 57.4141935 25.2012222 16.8212903 22.715746 16.8212903"></polygon>
                    <polygon id="Fill-12" fill="#FFFFFE" points="22.715746 57.4141935 25.2012222 57.4141935 25.2012222 16.8212903 22.715746 16.8212903"></polygon>
                    <path d="M12.5212381,31.6045161 C12.5652698,29.0229677 16.991619,28.9474839 16.991619,31.4849032 L17.0344921,33.6832258 L20.4121905,33.6832258 L20.4121905,31.652129 C20.6253968,24.8585806 9.00912698,24.8632258 9.09487302,31.4849032 L9.09487302,43.1802581 C9.00912698,49.8030968 20.6369841,49.9749677 20.4237778,43.1802581 L20.4237778,40.7310968 L16.991619,40.7310968 L16.991619,43.3532903 C16.991619,45.891871 12.5710635,45.9348387 12.5281905,43.3532903 L12.5281905,31.4849032 L12.5212381,31.6045161" id="Fill-13" fill="#FFFFFE"></path>
                    <path d="M31.8476984,28.9590968 C31.8476984,28.9590968 32.4374921,28.0892903 33.9843968,27.2276129 C35.9484444,26.1336774 37.8684603,27.2264516 37.5868889,27.0987097 C39.1326349,27.7873548 39.7201111,29.448 39.8301905,31.3072258 L39.8301905,45.1590968 L42.0074444,45.1590968 L42.0074444,47.6976774 L36.4084603,47.6976774 L36.4061429,31.1423226 C36.4061429,28.7314839 32.3459524,28.808129 32.3053968,31.2584516 L32.308873,31.1423226 L32.308873,47.6976774 L27.289254,47.6976774 L27.289254,45.1532903 L28.8755556,45.1567742 L28.8755556,29.6465806 L26.9891429,29.636129 L26.9891429,27.0987097 L31.8384286,27.0987097 L31.8476984,28.9590968" id="Fill-14" fill="#FFFFFE"></path>
                    <path d="M57.1949206,43.1245161 C57.3073175,44.9849032 57.8947937,46.6455484 59.4382222,47.3341935 C59.1439048,47.204129 60.1925556,47.7255484 61.2666984,47.7092903 C61.8252063,47.7 64.5609683,47.7046452 64.5609683,47.7046452 L64.5609683,45.1567742 C64.5609683,45.1567742 63.1786032,45.1405161 62.4462857,45.1474839 C61.5204603,45.1590968 60.7128254,44.7143226 60.6467778,43.3985806 L60.6537302,29.6581935 L60.6467778,29.636129 L63.9503175,29.636129 L63.9503175,27.1405161 L60.6409841,27.1405161 L60.6537302,27.0987097 L60.6537302,21.7683871 L57.1972381,21.7683871 L57.1949206,43.1245161" id="Fill-15" fill="#FFFFFE"></path>
                    <path d="M50.9748571,40.7310968 L50.9748571,43.3532903 C50.9748571,45.891871 46.556619,45.9348387 46.513746,43.3532903 L46.513746,37.8917419 L53.770873,37.899871 C54.1196508,37.899871 54.4012222,37.6176774 54.4012222,37.2692903 L54.397746,31.652129 C54.6109524,24.8585806 42.9946825,24.8632258 43.0815873,31.4849032 L43.0815873,43.1802581 C42.9946825,49.8030968 54.6225397,49.9749677 54.4093333,43.1802581 L54.4093333,40.7310968 L50.9748571,40.7310968 Z M46.513746,31.4686452 C46.5682063,28.9254194 50.9748571,28.9474839 50.9748571,31.4849032 L50.9621111,35.3125161 L46.513746,35.3136774 L46.513746,31.4686452 L46.513746,31.4686452 Z" id="Fill-16" fill="#FFFFFE"></path>
                </g>
            </g>
        </g>
    </g>
</svg>