<?xml version="1.0" encoding="UTF-8"?>
<svg width="180px" height="40px" viewBox="0 0 180 40" version="1.1" xmlns="http://www.w3.org/2000/svg" xmlns:xlink="http://www.w3.org/1999/xlink">
    <!-- Generator: Sketch 54.1 (76490) - https://sketchapp.com -->
    <title>engadget</title>
    <desc>Created with Sketch.</desc>
    <g id="Page-1" stroke="none" stroke-width="1" fill="none" fill-rule="evenodd" opacity="0.25">
        <g id="final" transform="translate(-620.000000, -988.000000)" fill="#000000">
            <g id="as-seen-in" transform="translate(0.000000, 912.000000)">
                <g id="engadget" transform="translate(620.000000, 76.000000)">
                    <polyline id="Fill-1" points="165.744 0.589 169.255 0.589 169.255 11.116 180 11.116 180 14.631 169.255 14.631 169.255 32.392 165.744 32.392 165.744 0.589"></polyline>
                    <path d="M74.497,18.572 C74.484,22.007 74.499,25.444 74.499,28.879 C79.25,28.862 84.006,28.884 88.758,28.884 C88.758,24.133 88.745,19.381 88.745,14.631 C85.337,14.601 81.92,14.633 78.511,14.631 C76.414,14.572 74.453,16.465 74.497,18.572 Z M78.287,11.124 C80.766,11.106 83.246,11.124 85.725,11.115 C86.916,11.137 88.109,11.062 89.298,11.156 C91.172,11.364 92.294,13.346 92.268,15.087 C92.313,20.849 92.261,26.627 92.266,32.391 C91.094,32.393 89.925,32.393 88.756,32.391 C88.758,31.25 88.739,30.108 88.771,28.965 C87.164,31.259 84.266,32.392 81.571,32.375 C79.382,32.419 77.19,32.387 74.999,32.395 C73.139,32.463 71.12,31.23 71.12,29.399 C71.102,25.591 71.069,21.782 71.129,17.976 C71.12,14.27 74.564,11.116 78.287,11.124 L78.287,11.124 Z" id="Fill-2"></path>
                    <path d="M23.904,13.479 C24.446,12.271 25.593,11.317 26.922,11.132 C28.661,11.099 30.401,11.126 32.142,11.117 C34.149,11.132 36.16,11.088 38.167,11.139 C41.563,11.29 44.436,14.225 44.831,17.546 C44.952,19.323 44.857,21.106 44.888,22.885 C44.893,26.054 44.886,29.221 44.888,32.391 C43.721,32.384 42.552,32.419 41.385,32.375 C41.379,27.767 41.383,23.159 41.374,18.553 C41.398,17.509 40.975,16.491 40.277,15.725 C40.01,15.491 39.729,15.273 39.44,15.07 C38.907,14.806 38.328,14.62 37.729,14.635 C34.193,14.627 30.657,14.631 27.122,14.627 C27.126,16.5 27.111,18.371 27.126,20.244 C27.104,24.293 27.148,28.344 27.099,32.395 C25.937,32.391 24.775,32.393 23.612,32.391 C23.617,27.05 23.597,21.711 23.61,16.37 C23.627,15.405 23.502,14.387 23.904,13.479" id="Fill-3"></path>
                    <path d="M50.818,28.877 L65.074,28.877 L65.074,14.631 L50.818,14.631 L50.818,28.877 Z M64.788,11.115 C63.739,11.116 55.704,11.116 50.735,11.116 C49.003,11.219 47.6,12.754 47.373,14.436 L47.373,18.245 L47.373,29.073 C47.599,30.751 48.998,32.283 50.726,32.392 C55.756,32.391 63.949,32.392 65.073,32.392 C65.073,33.562 65.073,34.731 65.076,35.9 C60.322,35.9 55.762,35.898 51.009,35.903 C51.013,37.072 51.009,38.239 51.009,39.408 C55.74,39.41 60.281,39.414 65.012,39.405 C66.795,39.456 68.466,37.934 68.506,36.137 L68.504,14.436 C68.262,12.641 66.68,11.013 64.788,11.115 L64.788,11.115 Z" id="Fill-4"></path>
                    <path d="M98.109,28.876 L112.365,28.876 L112.365,14.63 L98.109,14.63 L98.109,28.876 Z M98.027,32.391 C96.294,32.288 94.891,30.753 94.664,29.071 L94.664,25.262 L94.664,14.434 C94.891,12.756 96.289,11.224 98.017,11.115 C103.047,11.115 111.24,11.115 112.365,11.114 C112.365,10.192 112.365,3.817 112.365,0.589 L115.797,0.589 L115.795,32.393 C109.872,32.391 103.949,32.391 98.027,32.391 L98.027,32.391 Z" id="Fill-5"></path>
                    <path d="M121.907,28.877 L136.163,28.877 L136.163,14.631 L121.907,14.631 L121.907,28.877 Z M135.878,11.115 C134.828,11.116 126.794,11.116 121.825,11.116 C120.093,11.219 118.689,12.754 118.463,14.436 L118.462,18.245 L118.463,29.073 C118.689,30.751 120.088,32.283 121.815,32.392 C126.846,32.391 135.039,32.392 136.163,32.392 C136.163,33.562 136.163,34.731 136.165,35.9 C131.412,35.9 126.851,35.898 122.098,35.903 C122.103,37.072 122.098,38.239 122.098,39.408 C126.829,39.41 131.37,39.414 136.102,39.405 C137.885,39.456 139.556,37.934 139.596,36.137 L139.594,14.436 C139.352,12.641 137.769,11.013 135.878,11.115 L135.878,11.115 Z" id="Fill-6"></path>
                    <path d="M145.542,21.859 L159.798,21.859 L159.798,14.631 L145.542,14.631 L145.542,21.859 Z M145.827,11.115 C146.877,11.116 154.911,11.116 159.88,11.116 C161.612,11.219 163.016,12.754 163.242,14.436 L163.243,18.245 L163.242,22.054 C163.016,23.733 161.617,25.265 159.89,25.373 C154.859,25.373 146.667,25.373 145.542,25.374 C145.542,26.543 145.542,27.714 145.54,28.884 C150.293,28.884 155.046,28.882 159.799,28.886 C159.795,30.055 159.799,31.222 159.799,32.391 C155.068,32.393 150.335,32.398 145.604,32.389 C143.82,32.439 142.149,30.917 142.11,29.12 L142.112,14.436 C142.353,12.641 143.936,11.013 145.827,11.115 L145.827,11.115 Z" id="Fill-7"></path>
                    <path d="M3.432,21.859 L17.688,21.859 L17.688,14.631 L3.432,14.631 L3.432,21.859 Z M3.718,11.115 C4.767,11.116 12.801,11.116 17.77,11.116 C19.503,11.219 20.906,12.754 21.133,14.436 L21.133,18.245 L21.133,22.054 C20.907,23.733 19.508,25.265 17.78,25.373 C12.75,25.373 4.557,25.373 3.433,25.374 C3.433,26.543 3.433,27.714 3.43,28.884 C8.184,28.884 12.937,28.882 17.69,28.886 C17.685,30.055 17.69,31.222 17.69,32.391 C12.959,32.393 8.225,32.398 3.494,32.389 C1.711,32.439 0.039,30.917 0,29.12 L0.002,14.436 C0.244,12.641 1.826,11.013 3.718,11.115 L3.718,11.115 Z" id="Fill-8"></path>
                </g>
            </g>
        </g>
    </g>
</svg>