<?xml version="1.0" encoding="UTF-8"?>
<svg width="80px" height="55px" viewBox="0 0 80 55" version="1.1" xmlns="http://www.w3.org/2000/svg" xmlns:xlink="http://www.w3.org/1999/xlink">
    <!-- Generator: Sketch 54.1 (76490) - https://sketchapp.com -->
    <title>techcrunch</title>
    <desc>Created with Sketch.</desc>
    <g id="Page-1" stroke="none" stroke-width="1" fill="none" fill-rule="evenodd" opacity="0.25">
        <g id="final" transform="translate(-857.000000, -982.000000)" fill="#000000" fill-rule="nonzero">
            <g id="as-seen-in" transform="translate(0.000000, 912.000000)">
                <g id="techcrunch" transform="translate(857.000000, 70.000000)">
                    <path d="M40,0 L0,0 L0,13.3090351 L13.24128,13.3090351 L13.24128,40.7591813 L26.75872,40.7591813 L26.75872,13.3090351 L40,13.3090351 L40,0 Z M53.24128,0 L80,0 L80,13.3090351 L53.24128,13.3090351 L53.24128,0 Z M53.24128,26.7428655 L53.24128,13.3090351 L40,13.3090351 L40,40.7591813 L80,40.7591813 L80,26.7624854 L53.24128,26.7428655 Z" id="Shape"></path>
                    <path d="M5.51712,46.3048538 L5.51712,54.6230409 L3.30912,54.6230409 L3.30912,46.3048538 L0,46.3048538 L0,44.6410234 L8.27584,44.6410234 L8.27584,46.3048538 L5.51712,46.3048538 Z M14.47456,51.2957018 L9.88512,51.2957018 C9.95776,52.4047076 10.7328,52.9132164 11.46368,52.9132164 C12.0192,52.9132164 12.48768,52.789386 12.7792,52.4503801 L14.21152,53.6957602 C13.59776,54.4885965 12.48672,54.9649415 11.46368,54.9649415 C9.25568,54.9649415 7.85312,53.4033918 7.85312,50.9644152 C7.85312,48.5990936 9.32928,46.9439474 11.27392,46.9439474 C13.32192,46.9439474 14.504,48.6045614 14.504,50.8084211 C14.504,51.1036842 14.48928,51.2957018 14.47456,51.2957018 L14.47456,51.2957018 Z M11.17152,48.8052632 C10.44064,48.8052632 9.98752,49.0773684 9.91456,50.1863743 L12.5456,50.1863743 C12.48704,49.0773684 12.07776,48.8052632 11.17152,48.8052632 L11.17152,48.8052632 Z M19.31296,54.9868129 C17.31008,54.9868129 15.71712,53.3409942 15.71712,50.9756725 C15.71712,48.6103509 17.26688,46.9500585 19.40064,46.9500585 C20.8624,46.9500585 21.79776,47.669883 22.44064,48.6547368 L21.11072,50.005614 C20.6576,49.3591228 20.17536,48.9036842 19.3568,48.9036842 C18.392,48.9036842 17.76352,49.7116374 17.76352,50.9747076 C17.76352,52.2094737 18.392,53.0331871 19.3568,53.0331871 C20.14592,53.0331871 20.64288,52.679386 21.1696,52.048655 L22.45568,53.2679825 C21.70976,54.2673099 20.83264,54.9871345 19.31264,54.9871345 L19.31296,54.9868129 Z M28.41376,54.6230409 L28.41376,50.6524269 C28.41376,49.2719591 28.15104,48.8602632 27.31744,48.8602632 C26.48384,48.8602632 26.20704,49.2719591 26.20704,50.6090058 L26.20704,54.6233626 L24,54.6233626 L24,45.129269 L26.208,44.1148246 L26.208,47.6271053 C26.208,47.2594737 27.09184,46.9516667 27.896,46.9516667 C29.85472,46.9516667 30.62176,48.3025439 30.62176,50.4774561 L30.62176,54.6236842 L28.41376,54.6230409 Z" id="Shape"></path>
                    <path d="M38.68,47.5380117 C38.31456,46.8333041 37.72992,46.4216082 36.80928,46.4216082 C35.27328,46.4216082 34.39776,47.7724854 34.39776,49.6830117 C34.39776,51.5340351 35.28928,52.9447368 36.824,52.9447368 C37.7456,52.9447368 38.2864,52.5481579 38.82688,51.6372807 L40.55168,52.6665205 C39.85056,54.1209649 38.62176,54.9877778 36.76608,54.9877778 C34.09088,54.9877778 32.2928,52.9292982 32.2928,49.6833333 C32.2928,46.5541228 34.1632,44.3798538 36.8384,44.3798538 C38.76832,44.3798538 39.9376,45.32 40.58016,46.6564035 L38.68,47.5380117 Z M46.19328,49.4771637 C45.87328,49.1831871 45.54624,48.9776608 45.09312,48.9776608 C44.30464,48.9776608 43.86208,49.316345 43.86208,50.6524269 L43.86208,54.6230409 L41.65408,54.6230409 L41.65408,46.8590351 L43.86208,46.8590351 L43.86208,47.6261404 C44.41376,47.2588304 44.65536,46.9507018 45.37184,46.9507018 C46.02912,46.9507018 46.49184,47.2147661 46.75392,47.494269 L46.19328,49.4771637 Z M52.68928,54.5542105 L52.68928,54.3113743 C52.1376,54.6783626 51.80512,54.9868129 51.00128,54.9868129 C49.04224,54.9868129 48.27552,53.6359357 48.27552,51.4610234 L48.27552,46.8593567 L49.93056,46.8593567 L49.93056,51.2841228 C49.93056,52.6649123 50.46944,53.0766082 51.30304,53.0766082 C52.13664,53.0766082 52.68928,52.6645906 52.68928,51.3275439 L52.68928,46.8590351 L54.89728,46.8590351 L54.89728,54.6227193 L52.60352,54.6227193 L52.69024,54.5538889 L52.68928,54.5542105 Z M60.68928,54.6233626 L60.68928,50.6524269 C60.68928,49.2719591 60.56448,48.8602632 59.72928,48.8602632 C58.89408,48.8602632 58.75712,49.2719591 58.75712,50.6090058 L58.75712,54.6233626 L56.54912,54.6233626 L56.54912,46.8596784 L58.75712,46.8596784 L58.75712,47.6271053 C58.75712,47.2594737 59.50336,46.9516667 60.3072,46.9516667 C62.26624,46.9516667 62.89504,48.3025439 62.89504,50.4774561 L62.89504,54.6236842 L60.68928,54.6233626 Z M68.23456,54.9871345 C66.232,54.9871345 64.63936,53.3413158 64.63936,50.9759942 C64.63936,48.6106725 66.1888,46.9503801 68.32256,46.9503801 C69.78496,46.9503801 70.72032,47.6702047 71.36256,48.6550585 L70.0336,50.0059357 C69.57984,49.3594444 69.09824,48.9040058 68.28,48.9040058 C67.31424,48.9040058 66.68576,49.7119591 66.68576,50.9750292 C66.68576,52.2097953 67.31424,53.0335088 68.28,53.0335088 C69.06816,53.0335088 69.56608,52.6797076 70.09248,52.0489766 L71.37824,53.2683041 C70.63104,54.2676316 69.75456,54.9874561 68.23424,54.9874561 L68.23456,54.9871345 Z M77.24096,54.8263158 L77.24096,50.6524269 C77.24096,49.2719591 76.97824,48.8602632 76.14464,48.8602632 C75.31104,48.8602632 75.03424,49.2719591 75.03424,50.6090058 L75.03424,54.6233626 L72.82624,54.6233626 L72.82624,45.129269 L75.03424,44.1148246 L75.03424,47.6271053 C75.03424,47.2594737 75.9184,46.9516667 76.72224,46.9516667 C78.68128,46.9516667 79.448,48.3025439 79.448,50.4774561 L79.448,54.6236842 L77.2928,54.6236842 L77.24096,54.8256725 L77.24096,54.8263158 Z" id="Shape"></path>
                </g>
            </g>
        </g>
    </g>
</svg>