<?xml version="1.0" encoding="UTF-8"?>
<svg width="182px" height="32px" viewBox="0 0 182 32" version="1.1" xmlns="http://www.w3.org/2000/svg" xmlns:xlink="http://www.w3.org/1999/xlink">
    <!-- Generator: Sketch 54.1 (76490) - https://sketchapp.com -->
    <title>The_Guardian</title>
    <desc>Created with Sketch.</desc>
    <g id="Page-1" stroke="none" stroke-width="1" fill="none" fill-rule="evenodd" opacity="0.25">
        <g id="final" transform="translate(-829.000000, -1086.000000)" fill="#1A1919">
            <g id="as-seen-in" transform="translate(0.000000, 912.000000)">
                <g id="The_Guardian" transform="translate(829.000000, 174.000000)">
                    <path d="M150.397746,9.39834386 L149.241298,12.8098807 L146.411184,12.8098807 L146.411184,8.42554386 C147.944273,7.94318596 150.108634,7.15632281 152.997101,7.15632281 C157.381523,7.15632281 159.712985,8.91059649 159.712985,12.6589754 L159.712985,21.7429333 L161.651892,22.5621333 L161.651892,24.0253754 C161.118759,24.316407 159.50875,24.6882807 158.187854,24.6882807 C156.474401,24.6882807 155.13759,24.1331649 154.882959,22.3330807 L154.734425,22.3330807 C154.005014,23.8286596 152.060802,24.7206175 150.018452,24.7206175 C147.100809,24.7206175 145.267998,22.8181333 145.267998,20.0371649 C145.267998,16.6175439 147.493364,15.8657123 151.100633,15.1057965 L154.251687,14.5614596 L154.251687,12.5431018 C154.251687,10.3953965 153.615111,9.3282807 151.51706,9.3282807 C151.243862,9.3282807 150.729296,9.36870175 150.397746,9.39834386 M154.251687,21.0611649 L154.251687,16.3426807 L152.981186,16.4693333 C151.71599,16.5932912 150.6789,17.4475228 150.6789,19.0455018 C150.6789,20.8887018 151.676204,21.6971228 152.726556,21.6971228 C153.333956,21.6971228 153.951966,21.3953123 154.251687,21.0611649" id="Fill-4"></path>
                    <path d="M91.1483653,9.39834386 L89.9892651,12.8098807 L87.1618034,12.8098807 L87.1618034,8.42554386 C88.6948924,7.94318596 90.8592533,7.15632281 93.7450679,7.15632281 C98.1321426,7.15632281 100.463605,8.91059649 100.463605,12.6589754 L100.463605,21.7429333 L102.402512,22.5621333 L102.402512,24.0253754 C101.866726,24.316407 100.25937,24.6882807 98.9384732,24.6882807 C97.2250208,24.6882807 95.8882096,24.1331649 95.6362313,22.3330807 L95.4850443,22.3330807 C94.7556335,23.8286596 92.811422,24.7206175 90.7690716,24.7206175 C87.8514282,24.7206175 86.0212701,22.8181333 86.0212701,20.0371649 C86.0212701,16.6175439 88.2439839,15.8657123 91.8512521,15.1057965 L95.002307,14.5614596 L95.002307,12.5431018 C95.002307,10.3953965 94.3657302,9.3282807 92.2676794,9.3282807 C91.9944819,9.3282807 91.4799157,9.36870175 91.1483653,9.39834386 M95.002307,21.0611649 L95.002307,16.3426807 L93.7318059,16.4693333 C92.4666096,16.5932912 91.42952,17.4475228 91.42952,19.0455018 C91.42952,20.8887018 92.429476,21.6971228 93.4798276,21.6971228 C94.0845755,21.6971228 94.7025854,21.3953123 95.002307,21.0611649" id="Fill-5"></path>
                    <path d="M2.92148093,19.6410386 L2.92148093,10.390007 L0.399045581,10.390007 L0.399045581,7.86234386 L2.92148093,7.52011228 L2.92148093,4.3618807 L8.35890729,3.58849123 L8.35890729,7.52011228 L11.9688279,7.52011228 L11.9688279,10.390007 L8.35890729,10.390007 L8.35890729,19.155986 C8.35890729,20.7916912 8.81246822,21.6351439 10.4039101,21.6351439 C10.9768291,21.6351439 11.7513309,21.5704702 12.1465389,21.5031018 L12.1465389,23.6642807 C11.2553315,24.1870596 9.40130171,24.6316912 7.6878493,24.6316912 C4.44130791,24.6316912 2.92148093,23.1792281 2.92148093,19.6410386" id="Fill-6"></path>
                    <path d="M38.1029557,16.4046596 L47.9062375,16.4046596 C47.9062375,9.38756491 45.5323367,7.15632281 40.6068242,7.15632281 C35.7051833,7.15632281 32.4904707,10.3630596 32.4904707,15.8630175 C32.4904707,21.5462175 35.4054617,24.6882807 41.0550803,24.6882807 C44.0947343,24.6882807 46.5455547,23.3274386 47.304142,22.2711018 L47.304142,20.6380912 C46.1636087,21.0018807 44.9912465,21.2147649 42.8852384,21.2147649 C39.9198518,21.2147649 38.39472,19.657207 38.1029557,16.4046596 M40.5139901,9.18545965 C41.8826301,9.18545965 42.6173457,9.78099649 42.6173457,14.1410807 L38.0552124,14.4105544 C38.0552124,10.4789333 38.7819709,9.18545965 40.5139901,9.18545965" id="Fill-7"></path>
                    <path d="M60.2637836,20.7243228 L54.7892236,20.7243228 C53.9616738,20.7243228 53.4311932,20.1719018 53.4311932,19.5979228 C53.4311932,19.1505965 53.5505513,18.4742175 53.9457594,18.1454596 C54.8422716,18.4203228 55.8554896,18.5577544 56.9562369,18.5577544 C61.1947771,18.5577544 64.096506,16.6714386 64.096506,13.0416281 C64.096506,11.4005333 63.5288918,10.4816281 62.4758878,9.52769123 L62.5315882,9.38756491 L65.3802691,10.2768281 L65.3802691,7.14015439 L65.0619808,7.14015439 L60.9746276,7.88120702 L60.7412161,7.88120702 C59.7226933,7.49855439 58.2771336,7.18596491 56.9562369,7.18596491 C52.7203491,7.18596491 49.7867913,9.24474386 49.7867913,12.8718596 C49.7867913,15.0842386 50.6779988,16.7091649 52.4895901,17.6442386 L52.4895901,17.8167018 C50.9830251,18.951186 49.7549625,20.4844912 49.7549625,21.8453333 C49.7549625,23.1415018 50.6567795,24.6478596 52.4020608,25.0709333 L52.4020608,25.2460912 C50.9061054,25.7769544 48.7656161,26.3455439 48.7656161,28.1591018 C48.7656161,30.3957333 51.5055485,31.9398175 56.6777346,31.9398175 C63.1018549,31.9398175 65.9823647,29.2855018 65.9823647,25.3107649 C65.9823647,22.0474386 63.892271,20.7243228 60.2637836,20.7243228 M56.9562369,9.18815439 C58.1445135,9.18815439 58.9163628,10.0774175 58.9163628,12.8718596 C58.9163628,15.6609123 58.1339039,16.3750175 56.9562369,16.3750175 C55.7812223,16.3750175 55.0173302,15.6609123 55.0173302,12.8718596 C55.0173302,10.0774175 55.7679603,9.18815439 56.9562369,9.18815439 M56.8103547,29.7489965 C53.8237488,29.7489965 52.5293761,28.986386 52.5293761,27.8249544 C52.5293761,27.0111439 52.7680924,26.2700912 53.2959206,25.7931228 L59.7359553,25.7931228 C61.0886809,25.7931228 62.1390326,25.9898386 62.1390326,27.2294175 C62.1390326,28.9513544 60.5422859,29.7489965 56.8103547,29.7489965" id="Fill-8"></path>
                    <polyline id="Fill-9" points="135.310877 8.24769123 135.310877 9.9642386 137.337313 10.8265544 137.337313 21.7429333 135.395754 22.5621333 135.395754 24.3002386 144.753432 24.3002386 144.753432 22.5621333 142.806568 21.7429333 142.806568 7.13745965 142.347702 7.13745965 135.310877 8.24769123"></polyline>
                    <path d="M103.123965,8.24769123 L103.123965,9.9642386 L105.153054,10.8265544 L105.153054,21.7429333 L103.208842,22.5621333 L103.208842,24.3002386 L113.26145,24.3002386 L113.26145,22.5621333 L110.624961,21.7429333 L110.619656,12.6589754 C111.553302,12.2035649 112.784017,12.0553544 114.256101,12.0553544 C114.738838,12.0553544 115.309105,12.1146386 115.640656,12.2035649 L115.640656,7.33687018 C115.460292,7.27489123 115.099565,7.24794386 114.826368,7.24794386 C113.022734,7.24794386 111.553302,8.42554386 110.587828,10.6621754 L110.407464,10.6621754 L110.407464,7.13745965 L109.948598,7.13745965 L103.123965,8.24769123" id="Fill-10"></path>
                    <path d="M140.056026,0.263185965 C141.66073,0.263185965 142.957755,1.57821754 142.957755,3.2058386 C142.957755,4.83615439 141.66073,6.15657544 140.056026,6.15657544 C138.453975,6.15657544 137.154297,4.83615439 137.154297,3.2058386 C137.154297,1.57821754 138.453975,0.263185965 140.056026,0.263185965" id="Fill-11"></path>
                    <path d="M127.040684,21.3441123 L127.040684,10.0531649 C126.621604,9.72171228 126.173348,9.4522386 125.181349,9.4522386 C123.465245,9.4522386 122.154958,11.0259649 122.154958,15.7444491 C122.154958,19.8754807 123.197352,21.6701754 125.35906,21.6701754 C126.199872,21.6701754 126.672,21.4977123 127.040684,21.3441123 M127.043336,3.96575439 L124.823275,3.10613333 L124.823275,1.3922807 L132.056378,0.279354386 L132.515244,0.279354386 L132.515244,21.2282386 L134.448846,22.1956491 L134.448846,23.8448281 L127.751528,24.5912702 L127.287358,24.5885754 L127.287358,22.8504702 L127.104342,22.8504702 C126.422674,23.7370386 125.008943,24.6613333 122.969245,24.6613333 C119.96142,24.6613333 116.385981,22.7265123 116.385981,16.3157333 C116.385981,9.57619649 120.043645,7.15362807 124.398891,7.15362807 C125.298055,7.15362807 126.382888,7.36651228 127.043336,7.84887018 L127.043336,3.96575439" id="Fill-12"></path>
                    <path d="M68.202426,10.8265544 L66.1680329,9.9642386 L66.1680329,8.24769123 L73.2075107,7.13745965 L73.6663764,7.13745965 L73.6663764,18.9188491 C73.6663764,20.8240281 74.5841079,21.1581754 75.9660099,21.1581754 C76.9871851,21.1581754 77.3903504,20.9776281 77.9314406,20.7647439 L77.9314406,10.8265544 L75.8996998,9.9642386 L75.8996998,8.24769123 L82.9418301,7.13745965 L83.4006958,7.13745965 L83.4006958,21.4276491 L85.421827,22.3977544 L85.421827,23.8448281 L78.5812794,24.5912702 L78.1171088,24.5885754 L78.111804,22.3654175 L77.9314406,22.3654175 C76.8784366,23.6939228 75.1464174,24.6613333 72.9237036,24.6613333 C69.6161569,24.6613333 68.202426,22.268407 68.202426,19.3688702 L68.202426,10.8265544" id="Fill-13"></path>
                    <path d="M13.1624093,22.5594386 L15.1039684,21.7429333 L15.1039684,3.95497544 L13.07488,3.09265965 L13.07488,1.37611228 L20.056005,0.268575439 L20.5122183,0.268575439 L20.5122183,9.36331228 L20.6952341,9.36331228 C22.1646654,8.00516491 24.1486629,7.15632281 26.3713767,7.15632281 C29.1378332,7.15632281 30.5197352,8.5602807 30.5197352,11.6241965 L30.5197352,21.7429333 L32.4665991,22.5594386 L32.4665991,24.3002386 L23.2972416,24.3002386 L23.2972416,22.5594386 L25.0478276,21.7429333 L25.0478276,13.0685754 C25.0478276,11.3762807 24.3104595,10.7376281 22.8277662,10.7376281 C22.0161309,10.7376281 21.2363243,10.8885333 20.5732236,11.1633965 L20.5732236,21.7429333 L22.3238096,22.5594386 L22.3238096,24.3002386 L13.1624093,24.3002386 L13.1624093,22.5594386" id="Fill-14"></path>
                    <path d="M162.635934,22.5594386 L164.572188,21.7429333 L164.572188,10.8265544 L162.5431,9.9642386 L162.5431,8.24769123 L169.526877,7.13745965 L169.985743,7.13745965 L169.985743,9.36331228 L170.163454,9.36331228 C171.63819,8.00516491 173.616882,7.15632281 175.842249,7.15632281 C178.606053,7.15632281 179.985302,8.5602807 179.985302,11.6241965 L179.985302,21.7429333 L181.937471,22.5594386 L181.937471,24.3002386 L172.765461,24.3002386 L172.765461,22.5594386 L174.5187,21.7429333 L174.5187,13.0685754 C174.5187,11.3762807 173.783984,10.7376281 172.298638,10.7376281 C171.48435,10.7376281 170.707196,10.8885333 170.044096,11.1633965 L170.044096,21.7429333 L171.797334,22.5594386 L171.797334,24.3002386 L162.635934,24.3002386 L162.635934,22.5594386" id="Fill-15"></path>
                </g>
            </g>
        </g>
    </g>
</svg>