<?xml version="1.0" encoding="UTF-8"?>
<svg width="164px" height="34px" viewBox="0 0 164 34" version="1.1" xmlns="http://www.w3.org/2000/svg" xmlns:xlink="http://www.w3.org/1999/xlink">
    <!-- Generator: Sketch 54.1 (76490) - https://sketchapp.com -->
    <title>Wired</title>
    <desc>Created with Sketch.</desc>
    <g id="Page-1" stroke="none" stroke-width="1" fill="none" fill-rule="evenodd" opacity="0.251023065">
        <g id="final" transform="translate(-289.000000, -991.000000)">
            <g id="as-seen-in" transform="translate(0.000000, 912.000000)">
                <g id="Wired" transform="translate(289.000000, 79.000000)">
                    <polygon id="Fill-4" fill="#1B1A19" points="131.096073 33.4172281 163.836 33.4172281 163.836 0.311964912 131.096073 0.311964912"></polygon>
                    <polygon id="Fill-5" fill="#1B1A19" points="65.9165861 33.4172281 98.6565128 33.4172281 98.6565128 0.311964912 65.9165861 0.311964912"></polygon>
                    <polygon id="Fill-6" fill="#1B1A19" points="0.436732601 33.4172281 33.1766593 33.4172281 33.1766593 0.311964912 0.436732601 0.311964912"></polygon>
                    <path d="M57.8571575,9.30884211 L57.8571575,5.53126316 L42.0374652,5.53126316 L42.0374652,9.30884211 C42.0374652,9.30884211 47.2596337,9.30884211 47.544381,9.30884211 L47.544381,24.2217193 C47.2596337,24.2217193 42.0374652,24.2217193 42.0374652,24.2217193 L42.0374652,27.9992982 L57.8571575,27.9992982 L57.8571575,24.2217193 C57.8571575,24.2217193 52.1345788,24.2217193 51.8498315,24.2217193 L51.8498315,9.30884211 C52.1345788,9.30884211 57.8571575,9.30884211 57.8571575,9.30884211" id="Fill-7" fill="#1B1A19"></path>
                    <path d="M84.0388864,15.5224912 C81.2352674,15.5224912 77.8315165,15.6221053 77.8315165,15.6221053 L77.8315165,9.45796491 L84.1392088,9.45796491 C84.1392088,9.45796491 87.5429597,8.96108772 87.5429597,12.1421754 C87.5429597,14.926 86.8425055,15.5224912 84.0388864,15.5224912 Z M88.6447033,17.7098246 C88.6447033,17.7098246 92.0484542,17.4115789 92.0484542,11.3470526 C92.0484542,5.28252632 86.4418168,5.58077193 86.4418168,5.58077193 L73.4257436,5.58077193 L73.4257436,27.8501754 L77.8315165,27.8501754 L77.8315165,19.2010526 C77.8315165,19.2010526 82.337011,19.1014386 84.9399853,19.1014386 C87.5429597,19.1014386 87.5429597,22.8790175 87.5429597,22.8790175 L87.5429597,27.7505614 L92.0484542,27.7505614 C92.0484542,27.7505614 92.0484542,27.2536842 92.0484542,22.5807719 C92.0484542,17.9078596 88.6447033,17.7098246 88.6447033,17.7098246 L88.6447033,17.7098246 Z" id="Fill-8" fill="#FFFFFE"></path>
                    <polyline id="Fill-9" fill="#1B1A19" points="104.663839 5.58077193 104.663839 9.25933333 107.767824 9.25933333 107.767824 24.2712281 104.663839 24.2712281 104.663839 27.949193 123.78756 27.949193 123.78756 20.6922807 119.98252 20.6922807 119.98252 24.2712281 111.87263 24.2712281 111.87263 18.2067018 117.879956 18.2067018 117.879956 14.5281404 111.87263 14.5281404 111.87263 9.25933333 119.682154 9.25933333 119.682154 12.8382807 123.78756 12.8382807 123.78756 5.58077193 104.663839 5.58077193"></polyline>
                    <path d="M153.623546,19.8965614 C153.623546,19.8965614 153.523824,24.2712281 150.119473,24.2712281 C146.715121,24.2712281 143.011004,24.2712281 143.011004,24.2712281 L143.011004,9.35894737 L149.819106,9.35894737 C149.819106,9.35894737 153.623546,9.06010526 153.623546,14.1308772 C153.623546,19.2010526 153.623546,19.8965614 153.623546,19.8965614 Z M158.12904,19.7975439 L158.12904,13.534386 C158.12904,4.58701754 148.117231,5.68038596 148.117231,5.68038596 L138.405187,5.68038596 L138.405187,28.2474386 C138.405187,28.2474386 142.109905,28.1484211 150.319516,28.1484211 C158.529128,28.1484211 158.12904,19.7975439 158.12904,19.7975439 L158.12904,19.7975439 Z" id="Fill-10" fill="#FFFFFE"></path>
                    <polyline id="Fill-11" fill="#FFFFFE" points="3.24035165 5.68038596 7.74584615 5.68038596 10.8498315 22.680386 14.854315 5.68038596 19.7604982 5.78 23.7649817 22.9786316 26.7692454 5.68038596 31.0740952 5.68038596 26.4682784 27.949193 20.861641 27.949193 17.2572454 11.7449123 13.3524835 28.048807 7.8461685 28.048807 3.24035165 5.68038596"></polyline>
                </g>
            </g>
        </g>
    </g>
</svg>