<?xml version="1.0" encoding="UTF-8"?>
<svg width="337px" height="30px" viewBox="0 0 337 30" version="1.1" xmlns="http://www.w3.org/2000/svg" xmlns:xlink="http://www.w3.org/1999/xlink">
    <!-- Generator: Sketch 54.1 (76490) - https://sketchapp.com -->
    <title>wsj</title>
    <desc>Created with Sketch.</desc>
    <g id="Page-1" stroke="none" stroke-width="1" fill="none" fill-rule="evenodd" opacity="0.25">
        <g id="final" transform="translate(-251.000000, -1088.000000)" fill="#1A1919">
            <g id="as-seen-in" transform="translate(0.000000, 912.000000)">
                <g id="wsj" transform="translate(251.000000, 175.000000)">
                    <path d="M49.8507538,30.2456667 L35.5069849,30.2456667 L35.5069849,29.1761667 L36.2458291,29.1761667 C37.1952864,29.1761667 37.7574874,28.7163333 37.7574874,27.5417778 L37.7574874,4.5105 C37.7574874,3.33594444 37.1952864,2.87611111 36.2458291,2.87611111 L35.4730151,2.87611111 L35.4730151,1.81005556 L49.8507538,1.81005556 L49.8507538,11.5853889 L48.9012965,11.5853889 L48.9012965,11.4768889 C48.9012965,5.68505556 47.1603417,3.0535 43.9790653,3.0535 L41.6215578,3.0535 L41.6215578,14.8541667 L42.2211256,14.8541667 C44.0147337,14.8541667 44.8571859,13.1112778 44.8571859,9.45155556 L44.8571859,9.34477778 L45.8066432,9.34477778 L45.8066432,21.6414444 L44.8571859,21.6414444 L44.8571859,21.5708333 C44.8571859,17.9817222 44.050402,16.1337778 42.2211256,16.1337778 L41.6215578,16.1337778 L41.6215578,29.0022222 L43.8380905,29.0022222 C46.982,29.0022222 48.9012965,25.9073889 48.9012965,20.6098333 L48.9012965,20.5047778 L49.8507538,20.5047778 L49.8507538,30.2456667" id="Fill-3"></path>
                    <path d="M34.5592261,30.2456667 L26.1567839,30.2456667 L26.1567839,29.1761667 L26.8616583,29.1761667 C27.8111156,29.1761667 28.4072864,28.7163333 28.4072864,27.5417778 L28.4072864,16.3817778 L22.2553467,16.3817778 L22.2553467,27.5417778 C22.2553467,28.7197778 22.8515176,29.1761667 23.8043719,29.1761667 L24.5398191,29.1761667 L24.5398191,30.2456667 L16.1051055,30.2456667 L16.1051055,29.1761667 L16.8422513,29.1761667 C17.793407,29.1761667 18.3912764,28.7163333 18.3912764,27.5417778 L18.3912764,4.5105 C18.3912764,3.33594444 17.793407,2.87611111 16.8422513,2.87611111 L16.1051055,2.87611111 L16.1051055,1.81005556 L24.5398191,1.81005556 L24.5398191,2.87611111 L23.8043719,2.87611111 C22.8515176,2.87611111 22.2553467,3.33594444 22.2553467,4.5105 L22.2553467,14.8541667 L28.4072864,14.8541667 L28.4072864,4.5105 C28.4072864,3.33594444 27.8111156,2.87611111 26.8616583,2.87611111 L26.1567839,2.87611111 L26.1567839,1.81005556 L34.5592261,1.81005556 L34.5592261,2.87611111 L33.8203819,2.87611111 C32.8709246,2.87611111 32.2730553,3.33594444 32.2730553,4.5105 L32.2730553,27.5417778 C32.2730553,28.7197778 32.8709246,29.1761667 33.8203819,29.1761667 L34.5592261,29.1761667 L34.5592261,30.2456667" id="Fill-4"></path>
                    <path d="M15.6482111,11.656 L14.6987538,11.656 L14.6987538,11.5475 C14.6987538,6.96294444 12.9815779,3.0535 10.9739598,3.0535 L10.1281106,3.0535 L10.1281106,27.5417778 C10.1281106,28.7197778 10.7242814,29.1761667 11.6771357,29.1761667 L12.5552563,29.1761667 L12.5552563,30.2456667 L3.90653266,30.2456667 L3.90653266,29.1761667 L4.71501508,29.1761667 C5.66617085,29.1761667 6.26234171,28.7163333 6.26234171,27.5417778 L6.26234171,3.0535 L5.52349749,3.0535 C3.51248241,3.0535 1.79870352,6.71322222 1.79870352,11.5475 L1.79870352,11.656 L0.849246231,11.656 L0.849246231,1.81005556 L15.6482111,1.81005556 L15.6482111,11.656" id="Fill-5"></path>
                    <path d="M121.39805,30.2456667 L107.232623,30.2456667 L107.232623,29.1761667 L108.214352,29.1761667 C109.165508,29.1761667 109.763377,28.7490556 109.763377,27.5779444 L109.763377,4.47433333 C109.763377,3.3015 109.165508,2.87611111 108.214352,2.87611111 L107.443236,2.87611111 L107.443236,1.81005556 L115.81001,1.81005556 L115.81001,2.87611111 L115.140804,2.87611111 C114.189648,2.87611111 113.595176,3.3015 113.595176,4.47433333 L113.595176,29.0022222 L115.667337,29.0022222 C119.458372,29.0022222 120.448593,24.6277778 120.448593,20.5753889 L120.448593,20.4703333 L121.39805,20.4703333 L121.39805,30.2456667" id="Fill-6"></path>
                    <path d="M106.74006,30.2456667 L92.5746332,30.2456667 L93.1368342,29.1761667 L93.5597588,29.1761667 C94.5075176,29.1761667 95.1036884,28.7490556 95.1036884,27.5779444 L95.1036884,4.47433333 C95.1036884,3.3015 94.5075176,2.87611111 93.5597588,2.87611111 L92.7852462,2.87611111 L92.7852462,1.81005556 L101.150322,1.81005556 L101.150322,2.87611111 L100.484513,2.87611111 C99.5333568,2.87611111 98.9371859,3.3015 98.9371859,4.47433333 L98.9371859,29.0022222 L101.011045,29.0022222 C104.800382,29.0022222 105.790603,24.6639444 105.790603,20.5392222 L105.790603,20.4324444 L106.74006,20.4324444 L106.74006,30.2456667" id="Fill-7"></path>
                    <path d="M81.3255176,2.87611111 L81.0435678,2.87611111 C79.6932663,2.87611111 78.9951859,3.12755556 78.5128141,5.4715 L73.3816683,30.4557778 L71.8003719,30.4557778 L68.6021106,14.1067222 L68.5664422,14.1067222 L65.2968442,30.4557778 L63.7155477,30.4557778 L58.6880101,4.83255556 C58.3686935,3.19644444 57.901608,2.87611111 56.4748744,2.87611111 L56.3678693,2.87611111 L56.3678693,1.81005556 L63.995799,1.81005556 L63.995799,2.87611111 L63.8565226,2.87611111 C62.7592965,2.87611111 62.4858392,3.26533333 62.4858392,4.01277778 C62.4858392,4.185 62.4824422,4.44505556 62.519809,4.65172222 L65.7180704,21.9945 L65.789407,21.9945 L67.8632663,10.5882222 L66.7745327,4.83255556 C66.5027739,3.40827778 66.1834573,2.87611111 65.0522613,2.87611111 L64.8756181,2.87611111 L64.8756181,1.81005556 L72.3965427,1.81005556 L72.3965427,2.87611111 L72.2572663,2.87611111 C70.8526131,2.87611111 70.5706633,3.35316667 70.5689648,4.33311111 C70.5689648,4.59488889 70.6131256,4.89627778 70.6759698,5.22177778 L73.8742312,21.7843889 L73.9455678,21.7843889 L76.9688844,5.18733333 C77.0096482,4.94794444 77.0368241,4.71888889 77.0368241,4.5105 C77.0368241,3.37383333 76.6631558,2.87611111 75.1735779,2.87611111 L74.9629648,2.87611111 L74.9629648,1.81005556 L81.3255176,1.81005556 L81.3255176,2.87611111" id="Fill-8"></path>
                    <path d="M93.2421407,30.2456667 L85.2626231,30.2456667 L85.2626231,29.1761667 L85.4732362,29.1761667 C86.9288442,29.1761667 87.3721508,28.7869444 87.3721508,27.9688889 C87.3721508,27.7381111 87.3228945,27.4332778 87.2668442,27.1146667 L86.5993367,23.3481667 L81.8180804,23.3481667 L81.1488744,27.1146667 C81.0894271,27.4608333 81.0435678,27.7208889 81.0435678,27.9688889 C81.0435678,28.8506667 81.3866633,29.1761667 82.8371759,29.1761667 L82.9781508,29.1761667 L82.9781508,30.2456667 L76.9688844,30.2456667 L76.9688844,29.1761667 L77.2831055,29.1761667 C78.5128141,29.1761667 79.2176884,28.8885556 79.5319095,27.2231667 L84.4184724,1.52761111 L86.2120804,1.52761111 L91.2396181,27.1146667 C91.5402513,28.6595 92.3283518,29.1761667 92.9975578,29.1761667 L93.2421407,29.1761667 L93.2421407,30.2456667 Z M86.3173869,22.0323889 L84.2078593,9.45155556 L84.1382211,9.45155556 L82.030392,22.0323889 L86.3173869,22.0323889 L86.3173869,22.0323889 Z" id="Fill-9"></path>
                    <path d="M220.839688,11.656 L219.890231,11.656 L219.890231,11.5475 C219.890231,6.96466667 218.176452,3.0535 216.165437,3.0535 L215.321286,3.0535 L215.321286,27.5417778 C215.321286,28.7197778 215.917457,29.1761667 216.868613,29.1761667 L217.745035,29.1761667 L217.745035,30.2456667 L209.099709,30.2456667 L209.099709,29.1761667 L209.908191,29.1761667 C210.859347,29.1761667 211.455518,28.7163333 211.455518,27.5417778 L211.455518,3.0535 L210.716673,3.0535 C208.705658,3.0535 206.990181,6.71322222 206.990181,11.5475 L206.990181,11.656 L206.042422,11.656 L206.042422,1.81005556 L220.839688,1.81005556 L220.839688,11.656" id="Fill-10"></path>
                    <path d="M204.811015,30.2456667 L190.468945,30.2456667 L190.468945,29.1761667 L191.207789,29.1761667 C192.157246,29.1761667 192.717749,28.7163333 192.717749,27.5417778 L192.717749,4.5105 C192.717749,3.33594444 192.157246,2.87611111 191.207789,2.87611111 L190.434975,2.87611111 L190.434975,1.81005556 L204.811015,1.81005556 L204.811015,11.5853889 L203.861558,11.5853889 L203.861558,11.4768889 C203.861558,5.68505556 202.120603,3.0535 198.941025,3.0535 L196.585216,3.0535 L196.585216,14.8541667 L197.184784,14.8541667 C198.974995,14.8541667 199.820844,13.1112778 199.820844,9.45155556 L199.820844,9.34477778 L200.770302,9.34477778 L200.770302,21.6414444 L199.820844,21.6414444 L199.820844,21.5708333 C199.820844,17.9817222 199.012362,16.1337778 197.184784,16.1337778 L196.585216,16.1337778 L196.585216,29.0022222 L198.801749,29.0022222 C201.94396,29.0022222 203.861558,25.9073889 203.861558,20.6098333 L203.861558,20.5047778 L204.811015,20.5047778 L204.811015,30.2456667" id="Fill-11"></path>
                    <path d="M189.485518,30.2456667 L175.145146,30.2456667 L175.145146,29.1761667 L175.882291,29.1761667 C176.831749,29.1761667 177.392251,28.7163333 177.392251,27.5417778 L177.392251,4.5105 C177.392251,3.33594444 176.831749,2.87611111 175.882291,2.87611111 L175.109477,2.87611111 L175.109477,1.81005556 L189.485518,1.81005556 L189.485518,11.5853889 L188.53606,11.5853889 L188.53606,11.4768889 C188.53606,5.68505556 186.795106,3.0535 183.615528,3.0535 L181.259719,3.0535 L181.259719,14.8541667 L181.859286,14.8541667 C183.649497,14.8541667 184.493648,13.1112778 184.493648,9.45155556 L184.493648,9.34477778 L185.443106,9.34477778 L185.443106,21.6414444 L184.493648,21.6414444 L184.493648,21.5708333 C184.493648,17.9817222 183.686864,16.1337778 181.859286,16.1337778 L181.259719,16.1337778 L181.259719,29.0022222 L183.474553,29.0022222 C186.616764,29.0022222 188.53606,25.9073889 188.53606,20.6098333 L188.53606,20.5047778 L189.485518,20.5047778 L189.485518,30.2456667" id="Fill-12"></path>
                    <path d="M157.112251,11.656 L156.162794,11.656 L156.162794,11.5475 C156.162794,6.96466667 154.447317,3.0535 152.436302,3.0535 L151.592151,3.0535 L151.592151,27.5417778 C151.592151,28.7197778 152.188322,29.1761667 153.141176,29.1761667 L154.019296,29.1761667 L154.019296,30.2456667 L145.370573,30.2456667 L145.370573,29.1761667 L146.180754,29.1761667 C147.130211,29.1761667 147.726382,28.7163333 147.726382,27.5417778 L147.726382,3.0535 L146.987538,3.0535 C144.976523,3.0535 143.261045,6.71322222 143.261045,11.5475 L143.261045,11.656 L142.313286,11.656 L142.313286,1.81005556 L157.112251,1.81005556 L157.112251,11.656" id="Fill-13"></path>
                    <path d="M142.277618,23.3481667 C142.277618,28.3787778 139.262794,30.4557778 135.740121,30.4557778 C133.180492,30.4557778 132.013628,29.6032778 130.78392,28.7507778 L130.116412,30.2456667 L129.377568,30.2456667 L129.377568,20.4703333 L130.327025,20.4703333 L130.327025,20.7545 C130.327025,27.6141111 133.740995,29.1761667 135.458171,29.1761667 C138.065357,29.1761667 139.218633,27.6623333 139.218633,24.6639444 C139.218633,21.3934444 137.188935,19.0116111 134.262432,16.7727222 C131.612784,14.7439444 129.166955,12.2570556 129.166955,8.10305556 C129.166955,3.82161111 131.775839,1.59822222 134.89597,1.59822222 C137.492965,1.59822222 138.700593,2.66427778 139.393578,3.26533333 L140.098452,1.88066667 L140.801628,1.88066667 L140.801628,11.6904444 L139.850472,11.6904444 L139.850472,11.4062778 C139.850472,6.07427778 138.270874,2.87611111 135.142251,2.87611111 C133.161809,2.87611111 132.118935,4.28833333 132.118935,6.53927778 C132.118935,9.21216667 133.679849,10.7294444 136.582573,13.0079444 C139.799518,15.5292778 142.277618,18.1832222 142.277618,23.3481667" id="Fill-14"></path>
                    <path d="M174.898864,26.3689444 C174.898864,28.7525 174.003759,30.4557778 171.698905,30.4557778 C169.397447,30.4557778 168.419116,28.7266667 168.254362,25.1961111 L168.009779,19.9002778 C167.878995,17.1016667 166.822533,16.3473333 165.231045,16.3473333 L164.21195,16.3473333 L164.21195,27.5417778 C164.21195,28.7180556 164.667146,29.1761667 165.618302,29.1761667 L166.601729,29.1761667 L166.601729,30.2456667 L158.02604,30.2456667 L158.02604,29.1761667 L158.834523,29.1761667 C159.785678,29.1761667 160.380151,28.7180556 160.380151,27.5417778 L160.380151,4.5105 C160.380151,3.33594444 159.785678,2.87611111 158.834523,2.87611111 L158.02604,2.87611111 L158.02604,1.81005556 L165.723608,1.81005556 C170.37408,1.81005556 173.281899,4.21944444 173.281899,8.70583333 C173.281899,13.3971667 170.051367,15.1745 167.199598,15.7428333 L167.199598,15.8151667 C169.540121,16.0614444 171.67003,17.825 171.80591,20.5047778 L172.121829,26.7254444 C172.184673,27.9585556 172.332442,28.3253889 172.894643,28.3253889 C173.596121,28.3253889 173.737095,27.7915 173.737095,25.9418333 L173.737095,24.9119444 L174.898864,24.9119444 L174.898864,26.3689444 Z M169.239487,8.77644444 C169.239487,4.33311111 167.503628,3.0535 165.127437,3.0535 L164.21195,3.0535 L164.21195,15.0332778 L165.268412,15.0332778 C167.748211,15.0332778 169.239487,13.3282778 169.239487,8.77644444 L169.239487,8.77644444 Z" id="Fill-15"></path>
                    <path d="M331.752945,30.2456667 L317.587518,30.2456667 L318.14802,29.1761667 L318.572643,29.1761667 C319.522101,29.1761667 320.118271,28.7490556 320.118271,27.5779444 L320.118271,4.47777778 C320.118271,3.30494444 319.522101,2.87611111 318.572643,2.87611111 L317.798131,2.87611111 L317.798131,1.81005556 L326.163206,1.81005556 L326.163206,2.87611111 L325.495698,2.87611111 C324.54794,2.87611111 323.95007,3.30494444 323.95007,4.47777778 L323.95007,29.0022222 L326.02393,29.0022222 C329.814965,29.0022222 330.803487,24.6639444 330.803487,20.5753889 L330.803487,20.4703333 L331.752945,20.4703333 L331.752945,30.2456667" id="Fill-16"></path>
                    <path d="M336.641206,28.5010556 C336.641206,29.5705556 335.856503,30.4557778 335.020844,30.4557778 C334.186884,30.4557778 333.403879,29.5705556 333.403879,28.5010556 C333.403879,27.435 334.186884,26.5825 335.020844,26.5825 C335.856503,26.5825 336.641206,27.435 336.641206,28.5010556" id="Fill-17"></path>
                    <path d="M303.42209,2.87611111 L302.683246,2.87611111 C301.806824,2.87611111 301.103648,3.5495 301.103648,4.93761111 L301.103648,30.3507222 L299.729568,30.3507222 L290.941568,7.95838889 L290.87193,7.95838889 L290.87193,27.1146667 C290.87193,28.5045 291.575106,29.1761667 292.454925,29.1761667 L293.158101,29.1761667 L293.158101,30.2456667 L287.216774,30.2456667 L287.216774,29.1761667 L288.026955,29.1761667 C288.905075,29.1761667 289.608251,28.5045 289.608251,27.1146667 L289.608251,4.65172222 C289.608251,3.65627778 289.227789,2.87611111 288.237568,2.87611111 L287.216774,2.87611111 L287.216774,1.81005556 L292.631568,1.81005556 L299.766935,20.1155556 L299.836573,20.1155556 L299.836573,4.93761111 C299.836573,3.53916667 299.133397,2.87611111 298.253578,2.87611111 L297.516432,2.87611111 L297.516432,1.81005556 L303.42209,1.81005556 L303.42209,2.87611111" id="Fill-18"></path>
                    <path d="M271.118462,2.87611111 L269.640774,2.87611111 C268.764352,2.87611111 268.236121,3.62183333 268.236121,4.93761111 L268.236121,23.8820556 C268.236121,27.6571667 266.991126,30.4557778 262.964,30.4557778 C258.680402,30.4557778 256.180221,27.8001111 256.180221,23.8820556 L256.180221,4.5105 C256.180221,3.33594444 255.619719,2.87611111 254.670261,2.87611111 L253.895749,2.87611111 L253.895749,1.81005556 L262.121548,1.81005556 L262.121548,2.87611111 L261.591618,2.87611111 C260.640462,2.87611111 260.081658,3.33594444 260.081658,4.5105 L260.081658,24.1317778 C260.081658,27.3368333 261.33005,29.1761667 263.454864,29.1761667 C265.613648,29.1761667 266.935075,27.6192778 266.935075,24.1317778 L266.935075,4.93761111 C266.935075,3.62183333 266.440814,2.87611111 265.564392,2.87611111 L264.754211,2.87611111 L264.754211,1.81005556 L271.118462,1.81005556 L271.118462,2.87611111" id="Fill-19"></path>
                    <path d="M239.344764,2.87611111 L238.638191,2.87611111 C237.687035,2.87611111 237.090864,3.33594444 237.090864,4.5105 L237.090864,24.3436111 C237.090864,28.7955556 234.329116,30.4557778 230.799648,30.4557778 C228.27399,30.4557778 225.739839,28.3684444 225.739839,24.3436111 C225.739839,22.1822222 227.069759,21.2522222 228.12792,21.2522222 C229.228543,21.2522222 230.026834,22.041 230.026834,23.3843333 C230.026834,25.0996667 229.033216,25.8212778 227.742362,26.0141667 C227.742362,27.4746111 228.856573,29.1761667 230.765678,29.1761667 C232.596653,29.1761667 233.225095,28.1548889 233.225095,25.0893333 L233.225095,4.5105 C233.225095,3.33594444 232.666291,2.87611111 231.713437,2.87611111 L230.976291,2.87611111 L230.976291,1.81005556 L239.344764,1.81005556 L239.344764,2.87611111" id="Fill-20"></path>
                    <path d="M318.255025,30.2456667 L310.275508,30.2456667 L310.275508,29.1761667 L310.486121,29.1761667 C311.943427,29.1761667 312.383337,28.7869444 312.383337,27.9688889 C312.383337,27.7398333 312.335779,27.4332778 312.279729,27.1146667 L311.612221,23.3481667 L306.830965,23.3481667 L306.163457,27.1146667 C306.102312,27.4608333 306.058151,27.7208889 306.058151,27.9688889 C306.058151,28.8506667 306.397849,29.1761667 307.851759,29.1761667 L307.994432,29.1761667 L307.994432,30.2456667 L301.98007,30.2456667 L301.98007,29.1761667 L302.29599,29.1761667 C303.525698,29.1761667 304.232271,28.8885556 304.546492,27.2231667 L309.431357,1.52761111 L311.224965,1.52761111 L316.254201,27.1146667 C316.556533,28.6595 317.341236,29.1761667 318.008744,29.1761667 L318.255025,29.1761667 L318.255025,30.2456667 Z M311.330271,22.0323889 L309.222442,9.45155556 L309.151106,9.45155556 L307.043276,22.0323889 L311.330271,22.0323889 L311.330271,22.0323889 Z" id="Fill-21"></path>
                    <path d="M287.147136,26.3689444 C287.147136,28.7525 286.25203,30.4557778 283.947176,30.4557778 C281.64402,30.4557778 280.669085,28.7266667 280.504332,25.1961111 L280.256352,19.9002778 C280.127266,17.0861667 279.069106,16.3473333 277.481015,16.3473333 L276.460221,16.3473333 L276.460221,27.5417778 C276.460221,28.7180556 276.917116,29.1761667 277.868271,29.1761667 L278.853397,29.1761667 L278.853397,30.2456667 L270.274312,30.2456667 L270.274312,29.1761667 L271.084492,29.1761667 C272.03395,29.1761667 272.630121,28.7180556 272.630121,27.5417778 L272.630121,4.5105 C272.630121,3.33594444 272.03395,2.87611111 271.084492,2.87611111 L270.274312,2.87611111 L270.274312,1.81005556 L277.971879,1.81005556 C282.622352,1.81005556 285.528472,4.21944444 285.528472,8.70583333 C285.528472,13.3971667 282.301337,15.1745 279.447869,15.7428333 L279.447869,15.8151667 C281.79009,16.0614444 283.916603,17.8077778 284.054181,20.5047778 L284.370101,26.7254444 C284.432945,27.9654444 284.582412,28.3253889 285.142915,28.3253889 C285.84609,28.3253889 285.985367,27.7915 285.985367,25.9418333 L285.985367,24.9119444 L287.147136,24.9119444 L287.147136,26.3689444 Z M281.487759,8.77644444 C281.487759,4.33311111 279.753598,3.0535 277.37401,3.0535 L276.460221,3.0535 L276.460221,15.0332778 L277.516683,15.0332778 C279.998181,15.0332778 281.487759,13.3282778 281.487759,8.77644444 L281.487759,8.77644444 Z" id="Fill-22"></path>
                    <path d="M253.963688,15.9581111 C253.963688,24.0336111 251.346312,30.4557778 246.54807,30.4557778 C241.860231,30.4557778 239.237759,24.0336111 239.237759,15.9581111 C239.237759,7.874 241.753226,1.59822222 246.54807,1.59822222 C251.290261,1.59822222 253.963688,7.874 253.963688,15.9581111 Z M249.605357,22.7092222 L249.605357,9.27416667 C249.605357,4.35894444 248.526814,2.87611111 246.54807,2.87611111 C244.569327,2.87611111 243.560422,4.28833333 243.560422,9.34477778 L243.560422,22.6713333 C243.560422,27.4108889 244.462322,29.1761667 246.54807,29.1761667 C248.599849,29.1761667 249.605357,27.3041111 249.605357,22.7092222 L249.605357,22.7092222 Z" id="Fill-23"></path>
                </g>
            </g>
        </g>
    </g>
</svg>